<?xml version="1.0" encoding="utf-8"?>
<!-- Generator: Adobe Illustrator 16.0.1, SVG Export Plug-In . SVG Version: 6.00 Build 0)  -->
<!DOCTYPE svg PUBLIC "-//W3C//DTD SVG 1.1//EN" "http://www.w3.org/Graphics/SVG/1.1/DTD/svg11.dtd">
<svg version="1.1" id="Laag_1" xmlns="http://www.w3.org/2000/svg" xmlns:xlink="http://www.w3.org/1999/xlink" x="0px" y="0px"
	 width="146.514px" height="37.313px" viewBox="0 0 146.514 37.313" enable-background="new 0 0 146.514 37.313"
	 xml:space="preserve">
<g id="Laag_4">
	<polygon fill="#FFF" points="0,35.626 0,36.997 14.565,36.997 14.565,34.78 12.509,34.78 12.509,35.626 	"/>
	<polygon fill="#FFF" points="12.509,0.897 0.37,0.897 0.37,15.781 2.427,15.781 2.427,2.269 14.565,2.269 14.565,0.051
		12.509,0.051 	"/>
	<polygon fill="#FFF" points="0.37,17.998 0.37,33.409 2.427,33.409 2.427,19.368 12.507,19.368 12.507,17.152 10.451,17.152
		10.451,17.998 	"/>
	<path fill="#FFF" d="M23.317,33.37c-1.028-1.216-1.467-3.016-1.467-5.131v-2.062h-2.056v0.688
		C19.793,30.06,20.791,32.534,23.317,33.37z"/>
	<path fill="#FFF" d="M33.357,7.6v0.792h-0.271c0,0.139,0,0.279,0,0.42v0.95h2.322V8.97c0-4.069-1.331-7.306-4.438-8.609
		C32.625,2.013,33.357,4.578,33.357,7.6z"/>
	<path fill="#FFF" d="M22.114,8.761c0-3.906,1.479-6.808,5.489-6.808c0.661-0.008,1.319,0.088,1.95,0.285
		c-0.876-1.04-2.176-1.655-4.006-1.655c-1.349,0-2.412,0.331-3.23,0.914c-0.848,0.606-1.429,1.49-1.791,2.567
		c-0.333,1.077-0.493,2.199-0.471,3.326c0,8.973,13.353,9.123,13.353,19.317c0,8.234-5.321,9.236-7.968,9.236
		c-1.202,0.021-2.396-0.197-3.51-0.646c1.281,1.275,3.109,2.016,5.566,2.016c5.646,0,7.969-3.904,7.969-9.236
		C35.465,17.891,22.114,17.733,22.114,8.761z"/>
	<polygon fill="#FFF" points="43.597,18.262 41.063,22.273 41.063,35.626 40.691,35.626 40.691,36.997 43.12,36.997
		43.12,23.644 45.003,20.66 	"/>
	<polygon fill="#FFF" points="43.12,14.871 43.12,0.051 41.063,0.051 41.063,18.208 	"/>
	<polygon fill="#FFF" points="57.685,0.051 55.152,0.051 45.228,16.158 56.315,35.626 55.034,35.626 55.838,36.997
		58.371,36.997 47.13,17.256 	"/>
	<path fill="#FFF" d="M68.826,0.582c-1.249,0-2.261,0.279-3.067,0.783c-1.095,0.683-1.805,1.775-2.197,3.144
		c-0.267,0.991-0.395,2.015-0.38,3.041v19.21c0,3.25,1.04,5.808,3.597,6.651c-1.074-1.252-1.541-3.114-1.541-5.289V8.919
		c0-4.012,1.583-6.967,5.646-6.967c0.724-0.009,1.445,0.101,2.134,0.327C72.091,1.208,70.723,0.582,68.826,0.582z"/>
	<path fill="#FFF" d="M74.509,0.416c1.71,1.676,2.496,4.257,2.496,7.291v18.894c0.03,1.58-0.235,3.152-0.782,4.636
		c-0.431,1.147-1.141,2.17-2.065,2.974c-1.297,1.102-3.059,1.734-5.333,1.734c-1.206,0.021-2.403-0.205-3.52-0.662
		c1.308,1.285,3.147,2.031,5.576,2.031c5.701,0,8.171-3.958,8.171-9.34V9.077C79.062,5.015,77.649,1.768,74.509,0.416z"/>
	<path fill="#FFF" d="M95.905,0.65c1.223,1.33,1.738,3.307,1.738,5.892v2.123c0,1.45-0.148,2.697-0.51,3.74
		c-0.639,1.842-1.952,3.041-4.345,3.55c1.392,0.308,1.973,0.62,2.818,1.165c3.134-0.951,4.092-3.36,4.092-7.085V7.916
		C99.699,4.183,98.632,1.716,95.905,0.65z"/>
	<path fill="#FFF" d="M91.413,18.577c1.086-0.029,2.169,0.121,3.206,0.445c-1.073-1.292-2.824-1.817-5.263-1.817h-4.592v16.204
		h2.057V18.585L91.413,18.577z"/>
	<path fill="#FFF" d="M96.372,17.768c1.375,1.425,1.957,3.525,1.957,6.081v3.22c0,1.856-0.297,3.457-0.918,4.751
		c-0.325,0.689-0.771,1.314-1.318,1.846c-1.314,1.262-3.231,1.948-5.837,1.948h-5.861v1.37h7.915c5.648,0,8.076-3.22,8.076-8.553
		v-3.203C100.386,21.637,99.247,18.952,96.372,17.768z"/>
	<path fill="#FFF" d="M92.099,2.269c0.717-0.012,1.433,0.075,2.125,0.26c-0.787-1.079-2.107-1.63-4.181-1.63h-5.278v14.092h2.057
		V2.269H92.099z"/>
	<polygon fill="#FFF" points="107.222,27.444 105.137,36.997 107.353,36.997 109.2,28.815 118.959,28.815 118.649,27.444 	"/>
	<polygon fill="#FFF" points="114.996,0 122.925,35.626 122.243,35.626 122.553,36.997 124.981,36.997 116.747,0 	"/>
	<polygon fill="#FFF" points="112.843,1.425 107.515,25.333 109.874,25.333 114.036,6.67 	"/>
	<path fill="#FFF" d="M137.647,2.269c0.754-0.013,1.506,0.093,2.227,0.313c-0.885-1.095-2.271-1.691-4.282-1.691h-5.225v15.991
		h2.057V2.269H137.647z"/>
	<path fill="#FFF" d="M141.552,0.712c1.391,1.435,2.009,3.583,2.009,6.308v3.219c0.021,1.158-0.138,2.312-0.474,3.421
		c-0.729,2.252-2.316,3.641-4.857,4.23c0.977,0.203,2.022,0.595,2.736,1.186c3.172-0.988,4.65-3.421,4.65-7.469V8.391
		C145.616,4.574,144.404,1.887,141.552,0.712z"/>
	<path fill="#FFF" d="M146.514,36.997c-0.792-1.215-0.897-2.902-0.897-4.434V26.81c0-3.476-1.15-5.957-3.93-7.109
		c1.302,1.346,1.874,3.295,1.874,5.738v5.752c0,1.532,0.106,3.22,0.897,4.434h-1.008c0.11,0.48,0.289,0.941,0.53,1.371
		L146.514,36.997z"/>
	<path fill="#FFF" d="M134.22,19.105h-3.853v16.519h-0.38v1.371h2.429V20.478h3.853c1.366,0,2.571,0.145,3.578,0.506
		C138.667,19.585,136.71,19.105,134.22,19.105z"/>
</g>
</svg>
