<?xml version="1.0" encoding="utf-8"?>
<!-- Generator: Adobe Illustrator 16.0.1, SVG Export Plug-In . SVG Version: 6.00 Build 0)  -->
<!DOCTYPE svg PUBLIC "-//W3C//DTD SVG 1.1//EN" "http://www.w3.org/Graphics/SVG/1.1/DTD/svg11.dtd">
<svg version="1.1" id="Laag_1" xmlns="http://www.w3.org/2000/svg" xmlns:xlink="http://www.w3.org/1999/xlink" x="0px" y="0px"
	 width="160px" height="160px" viewBox="0 0 160 160" enable-background="new 0 0 160 160" xml:space="preserve">
<g id="Y5rUXk_1_">
	<g>
		<path fill-rule="evenodd" clip-rule="evenodd" fill="#FFF" d="M156.773,90.675c0.035,8.236-1.827,9.62-7.857,7.291
			c-10.903-4.209-22.08-6.185-33.821-5.844c-11.029,0.317-21.255-3.228-30.73-8.695c-3.667-2.115-6.489-2.507-10.492-0.138
			c-10.569,6.259-22.168,8.585-34.573,9.157c-10.226,0.472-20.4,3.313-30.457,5.695c-5.83,1.381-8.207,0.51-7.51-5.325
			c0.716-6.012,2.017-12.14,4.268-17.731c2.535-6.297,8.024-9.56,15.003-9.723c8.625-0.202,16.291-2.737,23.152-8.208
			c7.003-5.585,15.115-8.675,24.242-8.644c7.455,0.026,14.911-0.043,22.364-0.011c9.112,0.04,17.162,3.224,24.162,8.855
			c6.358,5.116,13.581,7.501,21.576,7.986c10.265,0.621,15.681,4.838,18.362,14.658C155.583,84.102,156.273,88.322,156.773,90.675z
			 M77.61,72.457c10.062,4.095,19.032,8.765,28.572,11.302c7.397,1.968,15.548,0.926,23.287,1.865
			c6.472,0.784,12.829,2.505,19.269,3.816c-0.64-12.802-4.471-16.634-16.727-17.272c-7.642-0.398-14.086-3.813-20.546-7.796
			c-5.705-3.52-12.064-6.461-18.529-8.119c-4.815-1.234-10.413,0.841-15.394-0.055c-11.9-2.144-21.996,1.073-31.297,8.234
			c-6.023,4.637-12.806,7.481-20.505,7.777C13.901,72.663,9.448,77.477,9.615,89.011c9.184-1.475,18.486-4.329,27.726-4.143
			C53.042,85.186,66.588,80.658,77.61,72.457z"/>
		<path fill-rule="evenodd" clip-rule="evenodd" fill="#FFF" d="M72.668,16.01c-21.203,1.064-41.215,13.708-52.982,38.927
			c-0.158,0.338-0.346,0.661-0.524,0.989c-1.397,2.577-1.56,7.345-5.895,5.758c-4.608-1.687-2.098-5.619-0.882-8.562
			C23.838,25.401,50.419,8.091,80.934,8.384c28.107,0.271,54.74,18.844,65.229,45.491c0.478,1.207,1.448,2.491,1.285,3.606
			c-0.213,1.46-1.015,3.434-2.147,3.982c-1.009,0.49-3.185-0.265-4.166-1.191c-1.123-1.06-1.55-2.892-2.194-4.424
			C128.625,31.282,105.645,15.984,72.668,16.01z"/>
		<path fill-rule="evenodd" clip-rule="evenodd" fill="#FFF" d="M78.72,152.75c-28.368-0.087-55.007-17.747-65.95-43.715
			c-1.094-2.596-2.691-5.459,1.061-7.085c3.923-1.7,4.688,1.889,5.806,4.235c12.052,25.304,32.042,38.842,60.062,38.72
			c27.683-0.123,46.959-14.27,58.932-38.83c1.242-2.549,2.061-5.797,5.782-4.095c3.578,1.636,2.094,4.568,0.972,7.196
			C134.214,135.337,107.448,152.837,78.72,152.75z"/>
	</g>
</g>
</svg>
